Plot.

When Sandy, a call girl at "The Naked Eye", ends up dead, her friend and only ally in the world, Jake, goes on a manhunt to find out who killed her. 


General.

Complete name                    : The.Girl.from.the.Naked.Eye.[2012].[BRrip].XViD.AC3-{RedDragon} .avi
Format                           : MPEG-4
Format profile                   : Base Media / Version 2
Codec ID                         : mp42
File size                        : 802 MiB
Duration                         : 1h 20mn
Overall bit rate                 : 1 396 Kbps
Encoded date                     : UTC 2012-01-26 04:48:41
Tagged date                      : UTC 2012-01-26 05:14:21
Writing application              : HandBrake 0.9.5 2011010300
IMDB Link                               : http://www.imdb.com/title/tt1079360/


Video.

ID                               : 1
Format                           : AVC
Format/Info                      : Advanced Video Codec
Format profile                   : Main@L2.1
Format settings, CABAC           : Yes
Format settings, ReFrames        : 4 frames
Codec ID                         : avc1
Codec ID/Info                    : Advanced Video Coding
Duration                         : 1h 20mn
Bit rate mode                    : Variable
Bit rate                         : 1 234 Kbps
Width                            : 640 pixels
Height                           : 272 pixels
Display aspect ratio             : 2.35:1
Frame rate mode                  : Variable
Frame rate                       : 25.000 fps
Minimum frame rate               : 25.000 fps
Maximum frame rate               : 90 000.000 fps
Color space                      : YUV
Chroma subsampling               : 4:2:0
Bit depth                        : 8 bits
Scan type                        : Progressive
Bits/(Pixel*Frame)               : 0.284
Stream size                      : 708 MiB (88%)
Writing library                  : x264 core 112
Encoded date                     : UTC 2012-01-26 04:48:41
Tagged date                      : UTC 2012-01-26 05:14:21
Color primaries                  : BT.601-6 525, BT.1358 525, BT.1700 NTSC, SMPTE 170M
Transfer characteristics         : BT.709-5, BT.1361
Matrix coefficients              : BT.601-6 525, BT.1358 525, BT.1700 NTSC, SMPTE 170M


Audio.

ID                               : 2
Format                           : AC-3
Format/Info                      : Audio Coding 3
Mode extension                   : CM (complete main)
Codec ID                         : ac-3
Duration                         : 1h 20mn
Bit rate mode                    : Constant
Bit rate                         : 160 Kbps
Channel(s)                       : 2 channels
Channel positions                : Front: L R
Sampling rate                    : 48.0 KHz
Bit depth                        : 16 bits
Stream size                      : 91.9 MiB (11%)
Encoded date                     : UTC 2012-01-26 04:48:41
Tagged date                      : UTC 2012-01-26 05:14:21
